<svg width="1138" height="620" viewBox="0 0 1138 620" fill="none" xmlns="http://www.w3.org/2000/svg">
<rect width="1138" height="620" rx="100" fill="#010101"/>
<path d="M923.158 291.667C920.996 290.631 918.799 289.633 916.573 288.678C912.697 217.282 873.675 176.408 808.152 175.99C807.855 175.988 807.56 175.988 807.263 175.988C768.072 175.988 735.477 192.712 715.415 223.145L751.45 247.859C766.438 225.126 789.958 220.28 807.28 220.28C807.48 220.28 807.681 220.28 807.879 220.282C829.453 220.419 845.733 226.69 856.27 238.92C863.938 247.823 869.067 260.127 871.606 275.654C852.478 272.404 831.791 271.405 809.677 272.672C747.38 276.26 707.331 312.583 710.021 363.055C711.386 388.657 724.144 410.682 745.943 425.07C764.374 437.233 788.111 443.182 812.782 441.835C845.362 440.049 870.921 427.622 888.752 404.899C902.294 387.643 910.859 365.28 914.64 337.103C930.167 346.471 941.674 358.799 948.03 373.618C958.836 398.81 959.466 440.206 925.679 473.955C896.077 503.521 860.494 516.312 806.718 516.706C747.065 516.265 701.951 497.139 672.619 459.86C645.152 424.953 630.957 374.533 630.427 310C630.957 245.466 645.152 195.046 672.619 160.139C701.951 122.861 747.064 103.736 806.717 103.292C866.802 103.739 912.703 122.956 943.157 160.414C958.09 178.783 969.349 201.884 976.771 228.818L1019 217.554C1010 184.401 995.847 155.833 976.583 132.14C937.54 84.1175 880.438 59.5102 806.864 59H806.57C733.145 59.5085 676.683 84.2093 638.752 132.416C604.998 175.313 587.587 235.003 587.002 309.824L587 310L587.002 310.176C587.587 384.997 604.998 444.688 638.752 487.585C676.683 535.79 733.145 560.493 806.57 561H806.864C872.142 560.548 918.155 543.461 956.061 505.6C1005.65 456.066 1004.16 393.978 987.816 355.862C976.089 328.53 953.731 306.33 923.158 291.667ZM810.45 397.607C783.146 399.144 754.781 386.892 753.382 360.65C752.345 341.192 767.233 319.48 812.125 316.894C817.266 316.598 822.311 316.453 827.267 316.453C843.573 316.453 858.828 318.036 872.697 321.068C867.524 385.653 837.182 396.14 810.45 397.607Z" fill="#61DAFB"/>
<path d="M611 319.805C611 284.731 567.031 251.491 499.62 230.879C515.177 162.242 508.263 107.634 477.798 90.1514C470.776 86.0505 462.565 84.1079 453.599 84.1079V108.174C458.568 108.174 462.565 109.145 465.914 110.98C480.607 119.398 486.98 151.45 482.011 192.675C480.823 202.82 478.878 213.504 476.501 224.404C455.327 219.223 432.209 215.23 407.902 212.64C393.318 192.675 378.193 174.545 362.961 158.68C398.179 125.981 431.236 108.066 453.707 108.066V84C423.998 84 385.107 105.152 345.784 141.845C306.461 105.368 267.57 84.4317 237.861 84.4317V108.498C260.223 108.498 293.389 126.305 328.607 158.788C313.483 174.653 298.358 192.675 283.99 212.64C259.575 215.23 236.457 219.223 215.283 224.511C212.798 213.72 210.961 203.251 209.665 193.215C204.587 151.989 210.853 119.937 225.437 111.412C228.678 109.469 232.892 108.606 237.861 108.606V84.5396C228.786 84.5396 220.576 86.4822 213.446 90.5831C183.089 108.066 176.283 162.566 191.948 230.987C124.753 251.707 81 284.839 81 319.805C81 354.879 124.969 388.118 192.38 408.73C176.823 477.367 183.737 531.975 214.202 549.458C221.224 553.559 229.435 555.501 238.509 555.501C268.218 555.501 307.109 534.349 346.432 497.656C385.755 534.133 424.647 555.07 454.355 555.07C463.43 555.07 471.64 553.127 478.77 549.026C509.127 531.543 515.933 477.044 500.268 408.623C567.247 388.01 611 354.771 611 319.805ZM470.344 247.822C466.346 261.744 461.377 276.097 455.759 290.45C451.33 281.817 446.685 273.183 441.607 264.55C436.638 255.916 431.345 247.498 426.051 239.296C441.391 241.563 456.192 244.369 470.344 247.822ZM420.865 362.757C412.439 377.326 403.797 391.14 394.83 403.982C378.733 405.385 362.421 406.14 346 406.14C329.687 406.14 313.375 405.385 297.386 404.09C288.419 391.247 279.669 377.542 271.243 363.08C263.032 348.943 255.578 334.59 248.772 320.128C255.47 305.667 263.032 291.206 271.135 277.068C279.561 262.499 288.203 248.686 297.17 235.843C313.267 234.44 329.579 233.685 346 233.685C362.313 233.685 378.625 234.44 394.614 235.735C403.581 248.578 412.331 262.283 420.757 276.745C428.968 290.882 436.422 305.235 443.228 319.697C436.422 334.158 428.968 348.619 420.865 362.757ZM455.759 348.727C461.593 363.188 466.563 377.65 470.668 391.679C456.516 395.133 441.607 398.046 426.159 400.313C431.453 392.003 436.746 383.477 441.715 374.736C446.685 366.102 451.33 357.361 455.759 348.727ZM346.216 463.877C336.169 453.517 326.122 441.97 316.183 429.343C325.906 429.775 335.845 430.099 345.892 430.099C356.047 430.099 366.094 429.883 375.925 429.343C366.202 441.97 356.155 453.517 346.216 463.877ZM265.841 400.313C250.501 398.046 235.7 395.241 221.548 391.787C225.545 377.865 230.515 363.512 236.132 349.159C240.562 357.792 245.207 366.426 250.285 375.06C255.362 383.693 260.547 392.111 265.841 400.313ZM345.676 175.732C355.723 186.092 365.77 197.639 375.709 210.266C365.986 209.834 356.047 209.511 346 209.511C335.845 209.511 325.798 209.726 315.967 210.266C325.69 197.639 335.737 186.092 345.676 175.732ZM265.733 239.296C260.439 247.606 255.146 256.132 250.177 264.873C245.207 273.507 240.562 282.141 236.132 290.774C230.299 276.313 225.329 261.852 221.224 247.822C235.376 244.477 250.285 241.563 265.733 239.296ZM167.965 374.412C129.722 358.116 104.983 336.748 104.983 319.805C104.983 302.861 129.722 281.385 167.965 265.197C177.256 261.204 187.411 257.643 197.89 254.297C204.047 275.45 212.15 297.465 222.196 320.02C212.258 342.468 204.263 364.375 198.214 385.42C187.519 382.074 177.364 378.405 167.965 374.412ZM226.086 528.629C211.393 520.212 205.02 488.159 209.989 446.934C211.177 436.79 213.122 426.106 215.499 415.206C236.673 420.386 259.791 424.379 284.098 426.969C298.682 446.934 313.807 465.065 329.039 480.929C293.821 513.628 260.764 531.543 238.293 531.543C233.432 531.435 229.327 530.464 226.086 528.629ZM482.335 446.394C487.413 487.62 481.147 519.672 466.563 528.198C463.322 530.14 459.108 531.004 454.139 531.004C431.777 531.004 398.611 513.197 363.393 480.713C378.517 464.849 393.642 446.826 408.01 426.861C432.425 424.271 455.543 420.278 476.717 414.99C479.202 425.89 481.147 436.358 482.335 446.394ZM523.927 374.412C514.636 378.405 504.481 381.966 494.002 385.312C487.845 364.16 479.742 342.144 469.695 319.589C479.634 297.141 487.629 275.234 493.678 254.189C504.373 257.535 514.528 261.204 524.035 265.197C562.278 281.493 587.017 302.861 587.017 319.805C586.909 336.748 562.17 358.224 523.927 374.412Z" fill="white"/>
<path d="M345.892 369.124C373.158 369.124 395.262 347.043 395.262 319.805C395.262 292.566 373.158 270.485 345.892 270.485C318.626 270.485 296.522 292.566 296.522 319.805C296.522 347.043 318.626 369.124 345.892 369.124Z" fill="white"/>
</svg>
